<mxfile>
    <diagram id="ytUhtNYWes4g4SQnJ3W1" name="Page-1">
        <mxGraphModel dx="506" dy="397" grid="0" gridSize="10" guides="1" tooltips="1" connect="1" arrows="1" fold="1" page="1" pageScale="1" pageWidth="827" pageHeight="1169" math="0" shadow="0">
            <root>
                <mxCell id="0"/>
                <mxCell id="1" parent="0"/>
                <mxCell id="2" value="Delivery" style="swimlane;fontStyle=3;align=center;verticalAlign=top;childLayout=stackLayout;horizontal=1;startSize=26;horizontalStack=0;resizeParent=1;resizeParentMax=0;resizeLast=0;collapsible=1;marginBottom=0;" vertex="1" parent="1">
                    <mxGeometry x="190" y="120" width="160" height="90" as="geometry"/>
                </mxCell>
                <mxCell id="4" value="" style="line;strokeWidth=1;fillColor=none;align=left;verticalAlign=middle;spacingTop=-1;spacingLeft=3;spacingRight=3;rotatable=0;labelPosition=right;points=[];portConstraint=eastwest;" vertex="1" parent="2">
                    <mxGeometry y="26" width="160" height="8" as="geometry"/>
                </mxCell>
                <mxCell id="5" value="+ factoryMethod() : Product" style="text;strokeColor=none;fillColor=none;align=left;verticalAlign=top;spacingLeft=4;spacingRight=4;overflow=hidden;rotatable=0;points=[[0,0.5],[1,0.5]];portConstraint=eastwest;fontStyle=2" vertex="1" parent="2">
                    <mxGeometry y="34" width="160" height="26" as="geometry"/>
                </mxCell>
                <mxCell id="6" value="&lt;font face=&quot;helvetica&quot;&gt;&amp;nbsp;+ anOperation()&lt;/font&gt;" style="text;whiteSpace=wrap;html=1;" vertex="1" parent="2">
                    <mxGeometry y="60" width="160" height="30" as="geometry"/>
                </mxCell>
                <mxCell id="7" value="SeaDelivery" style="swimlane;fontStyle=1;align=center;verticalAlign=top;childLayout=stackLayout;horizontal=1;startSize=26;horizontalStack=0;resizeParent=1;resizeParentMax=0;resizeLast=0;collapsible=1;marginBottom=0;" vertex="1" parent="1">
                    <mxGeometry x="110" y="270" width="160" height="60" as="geometry"/>
                </mxCell>
                <mxCell id="9" value="" style="line;strokeWidth=1;fillColor=none;align=left;verticalAlign=middle;spacingTop=-1;spacingLeft=3;spacingRight=3;rotatable=0;labelPosition=right;points=[];portConstraint=eastwest;" vertex="1" parent="7">
                    <mxGeometry y="26" width="160" height="8" as="geometry"/>
                </mxCell>
                <mxCell id="10" value="+ factoryMethod() : Product" style="text;strokeColor=none;fillColor=none;align=left;verticalAlign=top;spacingLeft=4;spacingRight=4;overflow=hidden;rotatable=0;points=[[0,0.5],[1,0.5]];portConstraint=eastwest;" vertex="1" parent="7">
                    <mxGeometry y="34" width="160" height="26" as="geometry"/>
                </mxCell>
                <mxCell id="11" value="RoadDelivery" style="swimlane;fontStyle=1;align=center;verticalAlign=top;childLayout=stackLayout;horizontal=1;startSize=26;horizontalStack=0;resizeParent=1;resizeParentMax=0;resizeLast=0;collapsible=1;marginBottom=0;" vertex="1" parent="1">
                    <mxGeometry x="280" y="270" width="160" height="60" as="geometry"/>
                </mxCell>
                <mxCell id="12" value="" style="line;strokeWidth=1;fillColor=none;align=left;verticalAlign=middle;spacingTop=-1;spacingLeft=3;spacingRight=3;rotatable=0;labelPosition=right;points=[];portConstraint=eastwest;" vertex="1" parent="11">
                    <mxGeometry y="26" width="160" height="8" as="geometry"/>
                </mxCell>
                <mxCell id="13" value="+ factoryMethod() : Product" style="text;strokeColor=none;fillColor=none;align=left;verticalAlign=top;spacingLeft=4;spacingRight=4;overflow=hidden;rotatable=0;points=[[0,0.5],[1,0.5]];portConstraint=eastwest;" vertex="1" parent="11">
                    <mxGeometry y="34" width="160" height="26" as="geometry"/>
                </mxCell>
                <mxCell id="14" value="" style="endArrow=block;endFill=0;endSize=12;html=1;exitX=0.5;exitY=0;exitDx=0;exitDy=0;entryX=0.357;entryY=1.015;entryDx=0;entryDy=0;entryPerimeter=0;" edge="1" parent="1" source="7" target="6">
                    <mxGeometry width="160" relative="1" as="geometry">
                        <mxPoint x="170" y="230" as="sourcePoint"/>
                        <mxPoint x="330" y="230" as="targetPoint"/>
                    </mxGeometry>
                </mxCell>
                <mxCell id="15" value="" style="endArrow=block;endFill=0;endSize=12;html=1;entryX=0.695;entryY=1.052;entryDx=0;entryDy=0;entryPerimeter=0;" edge="1" parent="1" source="11" target="6">
                    <mxGeometry width="160" relative="1" as="geometry">
                        <mxPoint x="200" y="280" as="sourcePoint"/>
                        <mxPoint x="257.1199999999999" y="220.45000000000005" as="targetPoint"/>
                    </mxGeometry>
                </mxCell>
                <mxCell id="16" value="«interface»&lt;br&gt;&lt;b&gt;Product&lt;/b&gt;" style="html=1;" vertex="1" parent="1">
                    <mxGeometry x="520" y="120" width="110" height="50" as="geometry"/>
                </mxCell>
                <mxCell id="17" value="+ operation()" style="html=1;" vertex="1" parent="1">
                    <mxGeometry x="520" y="170" width="110" height="20" as="geometry"/>
                </mxCell>
                <mxCell id="18" value="SeaDeliveryProduct" style="html=1;" vertex="1" parent="1">
                    <mxGeometry x="460" y="240" width="110" height="24" as="geometry"/>
                </mxCell>
                <mxCell id="19" value="RoadDeliveryProduct" style="html=1;" vertex="1" parent="1">
                    <mxGeometry x="580" y="240" width="120" height="24" as="geometry"/>
                </mxCell>
                <mxCell id="20" value="" style="endArrow=block;dashed=1;endFill=0;endSize=12;html=1;exitX=0.545;exitY=0;exitDx=0;exitDy=0;exitPerimeter=0;entryX=0.393;entryY=1.029;entryDx=0;entryDy=0;entryPerimeter=0;" edge="1" parent="1" source="18" target="17">
                    <mxGeometry width="160" relative="1" as="geometry">
                        <mxPoint x="460" y="210" as="sourcePoint"/>
                        <mxPoint x="620" y="210" as="targetPoint"/>
                    </mxGeometry>
                </mxCell>
                <mxCell id="21" value="" style="endArrow=block;dashed=1;endFill=0;endSize=12;html=1;entryX=0.75;entryY=1;entryDx=0;entryDy=0;" edge="1" parent="1" source="19" target="17">
                    <mxGeometry width="160" relative="1" as="geometry">
                        <mxPoint x="529.95" y="250" as="sourcePoint"/>
                        <mxPoint x="573.23" y="200.58000000000004" as="targetPoint"/>
                    </mxGeometry>
                </mxCell>
                <mxCell id="22" value="" style="endArrow=open;endFill=1;endSize=12;html=1;entryX=0;entryY=0.75;entryDx=0;entryDy=0;exitX=0.984;exitY=0.049;exitDx=0;exitDy=0;exitPerimeter=0;dashed=1;" edge="1" parent="1" source="5" target="16">
                    <mxGeometry width="160" relative="1" as="geometry">
                        <mxPoint x="350" y="160" as="sourcePoint"/>
                        <mxPoint x="510" y="160" as="targetPoint"/>
                    </mxGeometry>
                </mxCell>
            </root>
        </mxGraphModel>
    </diagram>
</mxfile>